<svg id="Icons" height="512" viewBox="0 0 74 74" width="512" xmlns="http://www.w3.org/2000/svg"><path d="m41.424 72h-8.848a2 2 0 0 1 -1.966-1.633l-.9-4.824a29.219 29.219 0 0 1 -7.737-3.2l-4.048 2.773a2 2 0 0 1 -2.544-.235l-6.258-6.26a2 2 0 0 1 -.235-2.546l2.773-4.047a29.181 29.181 0 0 1 -3.2-7.737l-4.824-.9a2 2 0 0 1 -1.637-1.967v-8.848a2 2 0 0 1 1.633-1.966l4.824-.9a29.167 29.167 0 0 1 3.2-7.737l-2.769-4.049a2 2 0 0 1 .235-2.544l6.256-6.257a2 2 0 0 1 2.546-.235l4.047 2.773a29.181 29.181 0 0 1 7.737-3.2l.9-4.824a2 2 0 0 1 1.967-1.637h8.848a2 2 0 0 1 1.966 1.633l.9 4.824a29.219 29.219 0 0 1 7.737 3.2l4.048-2.773a2 2 0 0 1 2.544.235l6.257 6.256a2 2 0 0 1 .235 2.546l-2.774 4.047a29.15 29.15 0 0 1 3.205 7.737l4.824.9a2 2 0 0 1 1.634 1.971v8.848a2 2 0 0 1 -1.633 1.966l-4.824.9a29.219 29.219 0 0 1 -3.2 7.737l2.773 4.048a2 2 0 0 1 -.235 2.544l-6.256 6.257a2 2 0 0 1 -2.545.236l-4.048-2.775a29.15 29.15 0 0 1 -7.737 3.205l-.9 4.824a2 2 0 0 1 -1.971 1.634zm-9.833-7.272.985 5.272h8.848l1.016-5.441a1 1 0 0 1 .761-.809 27.224 27.224 0 0 0 8.344-3.46 1 1 0 0 1 1.243.145l4.419 3.028 6.256-6.256-3.129-4.566a1 1 0 0 1 -.034-1.11 27.246 27.246 0 0 0 3.454-8.346 1 1 0 0 1 .974-.776l5.272-.985v-8.848l-5.441-1.016a1 1 0 0 1 -.809-.761 27.224 27.224 0 0 0 -3.46-8.344 1 1 0 0 1 .145-1.243l3.028-4.419-6.256-6.256-4.566 3.129a1 1 0 0 1 -1.11.034 27.246 27.246 0 0 0 -8.346-3.454 1 1 0 0 1 -.776-.974l-.985-5.272h-8.848l-1.016 5.441a1 1 0 0 1 -.761.809 27.215 27.215 0 0 0 -8.345 3.46 1 1 0 0 1 -1.243-.146l-4.418-3.027-6.256 6.256 3.129 4.566a1 1 0 0 1 .034 1.11 27.257 27.257 0 0 0 -3.454 8.346 1 1 0 0 1 -.974.776l-5.272.985v8.848l5.441 1.016a1 1 0 0 1 .809.761 27.238 27.238 0 0 0 3.459 8.345 1 1 0 0 1 -.143 1.24l-3.029 4.421 6.256 6.256 4.566-3.129a1 1 0 0 1 1.111-.034 27.231 27.231 0 0 0 8.345 3.454 1 1 0 0 1 .776.974z"/><path d="m37 58a2.75 2.75 0 0 1 -.351-.017 1 1 0 1 1 .242-1.983h.109a18.683 18.683 0 0 0 2.638-.19 1 1 0 1 1 .284 1.98 20.756 20.756 0 0 1 -2.922.21z"/><path d="m28.8 56.241a.993.993 0 0 1 -.409-.089 21.015 21.015 0 1 1 26.837-8.743 1 1 0 0 1 -1.734-1 18.994 18.994 0 1 0 -24.284 7.919 1 1 0 0 1 -.411 1.913z"/><path d="m46.431 55.63a1 1 0 0 1 -.468-1.884 18.264 18.264 0 0 0 2.445-1.555 1 1 0 1 1 1.2 1.6 20.1 20.1 0 0 1 -2.708 1.723.993.993 0 0 1 -.469.116z"/></svg>